<svg width="2700" height="800" viewBox="0 0 2700 800" fill="none" xmlns="http://www.w3.org/2000/svg">
<path d="M499 464L235 664C227 661 221 652 221 639V290C221 276 227 267 236 264L499 464Z" fill="url(#paint0_linear_406_1485)"/>
<path d="M499 530L258 661C249 666 241 666 235 664L446 451L499 530Z" fill="url(#paint1_linear_406_1485)"/>
<path d="M236 264C242 262 250 263 258 268L498 399L445 476L236 264Z" fill="url(#paint2_linear_406_1485)"/>
<path d="M498 399L583 445C603 456 603 473 583 484L499 530L433 464L498 399Z" fill="url(#paint3_linear_406_1485)"/>
<path d="M1292 230C1327 230 1353 203 1353 169C1353 134 1326 107 1292 107C1258 107 1231 135 1231 169C1231 203 1258 230 1292 230ZM1292 216C1266 216 1247 195 1247 169C1247 143 1266 121 1292 121C1318 121 1338 143 1338 169C1338 195 1318 216 1292 216ZM1278 589C1328 589 1367 551 1367 501C1367 451 1328 412 1278 412C1228 412 1189 451 1189 501C1189 551 1228 589 1278 589ZM1278 554C1250 554 1228 530 1228 501C1228 471 1249 447 1278 447C1308 447 1328 470 1328 501C1328 530 1306 554 1278 554ZM1518 567V582C1518 614 1502 633 1471 633C1437 633 1427 602 1427 602L1393 616C1393 616 1412 668 1471 668C1525 668 1555 633 1555 576V418H1518V433C1511 423 1492 412 1471 412C1424 412 1386 453 1386 501C1386 548 1424 589 1471 589C1492 589 1510 580 1518 567ZM2548 411C2548 410 2502 410 2502 410L2455 528L2404 410L2360 411L2434 578L2393 665H2437L2548 411ZM2304 561H2306V585H2345V480C2345 426 2307 400 2261 400C2205 400 2188 441 2188 441L2222 457C2222 457 2232 436 2261 436C2282 436 2305 449 2305 475C2273 457 2182 462 2182 528C2182 577 2231 591 2250 591C2275 591 2291 581 2304 561ZM1734 589C1769 589 1794 570 1808 550L1777 530C1777 530 1765 554 1734 554C1715 554 1700 545 1691 527L1809 478C1798 445 1773 412 1730 412C1681 412 1646 451 1646 501C1646 551 1684 589 1734 589ZM1084 589C1134 589 1173 551 1173 501C1173 451 1134 412 1084 412C1034 412 995 451 995 501C995 551 1034 589 1084 589ZM851 589C931 589 991 529 977 439H851V477H940C935 524 900 551 851 551C795 551 752 507 752 452C752 395 796 352 851 352C877 352 899 361 918 379L945 352C918 328 887 314 851 314C776 314 711 376 711 452C711 528 775 589 851 589ZM2150 585V327H2111V585H2150ZM1994 327H1904V585H1943V485H1994C2042 485 2077 453 2077 406C2077 359 2042 327 1994 327ZM1624 584V324H1585V584H1624ZM1474 554C1445 554 1425 530 1425 501C1425 471 1445 447 1474 447C1503 447 1521 471 1521 501C1521 530 1502 554 1474 554ZM1084 554C1056 554 1034 530 1034 501C1034 471 1055 447 1084 447C1114 447 1134 470 1134 501C1134 530 1112 554 1084 554ZM2255 552C2241 552 2223 546 2223 529C2223 493 2288 493 2306 510C2306 520 2287 552 2255 552ZM1684 498C1684 463 1712 446 1731 446C1743 446 1758 452 1764 465L1684 498ZM1995 365C2022 365 2037 388 2037 406C2037 424 2024 447 1995 447H1943V365H1995ZM842 165H784V179H827C826 202 807 216 784 216C759 216 738 196 738 169C738 139 761 121 784 121C807 121 817 135 817 135L827 125C827 125 814 107 784 107C750 107 723 134 723 169C723 202 749 230 784 230C818 230 847 205 842 165ZM1386 228V131L1446 228H1462V110H1447V179L1448 202H1447L1390 110H1371V228H1386ZM1188 124V110H1107V124H1140V228H1155V124H1188ZM1091 228V110H1076V228H1091ZM1024 124V110H943V124H976V228H991V124H1024ZM930 124V110H861V228H930V213H876V176H925V162H876V124H930Z" fill="white"/>
<defs>
<linearGradient id="paint0_linear_406_1485" x1="-264" y1="221" x2="-264" y2="499" gradientUnits="userSpaceOnUse">
<stop stop-color="#3588B7"/>
<stop offset="1" stop-color="#66FFD4"/>
</linearGradient>
<linearGradient id="paint1_linear_406_1485" x1="235" y1="451" x2="499" y2="451" gradientUnits="userSpaceOnUse">
<stop stop-color="#9635C2"/>
<stop offset="1" stop-color="#E3424F"/>
</linearGradient>
<linearGradient id="paint2_linear_406_1485" x1="236" y1="263.034" x2="498" y2="263.034" gradientUnits="userSpaceOnUse">
<stop stop-color="#60CAB6"/>
<stop offset="1" stop-color="#D6FFA2"/>
</linearGradient>
<linearGradient id="paint3_linear_406_1485" x1="24.0416" y1="588.313" x2="140.714" y2="704.985" gradientUnits="userSpaceOnUse">
<stop stop-color="#FF9877"/>
<stop offset="1" stop-color="#FFC466"/>
</linearGradient>
</defs>
</svg>
