<svg width="2700" height="800" viewBox="0 0 2700 800" fill="none" xmlns="http://www.w3.org/2000/svg">
<path d="M1303 211C1303 211 1303 190 1324 190C1344 190 1343 212 1343 212V269H1364V212C1364 212 1365 172 1331 172C1309 172 1301 189 1301 189L1300 174H1281L1282 201V269H1303V211ZM2249 211C2249 211 2249 190 2270 190C2290 190 2289 212 2289 212V269H2310V212C2310 212 2311 172 2277 172C2255 172 2249 189 2249 189V131H2228V269H2249V211ZM1429 634C1542 634 1542 434 1435 434C1386 434 1369 470 1369 470L1367 438H1329L1331 481V708H1374V607C1374 607 1387 634 1429 634ZM1421 468C1488 468 1488 601 1420 601C1375 601 1374 554 1374 554V519C1374 519 1375 468 1421 468ZM1098 221C1098 156 1006 156 1006 222C1006 289 1098 287 1098 221ZM1076 221C1076 267 1027 268 1027 222C1027 177 1076 176 1076 221ZM1545 221C1545 156 1453 156 1453 222C1453 289 1545 287 1545 221ZM1523 221C1523 267 1474 268 1474 222C1474 177 1523 176 1523 221ZM1997 211C1997 211 1997 190 2018 190C2038 190 2037 212 2037 212V269H2058V212C2058 212 2059 172 2025 172C2003 172 1995 189 1995 189L1994 174H1975L1976 201V269H1997V211ZM658 298C658 298 625 247 557 247C519 247 487 271 467 271C443 271 421 249 382 249C307 249 245 320 257 428C268 525 337 635 388 635C420 635 434 614 473 614C512 614 523 634 557 634C614 634 661 533 671 499C592 467 572 352 658 298ZM565 124C510 128 457 182 463 242C522 244 571 184 565 124ZM1073 630L987 364H934L848 630H892L916 552H1003L1027 630H1073ZM995 519H924L959 402L995 519ZM1208 634C1321 634 1321 434 1214 434C1165 434 1148 470 1148 470L1146 438H1108L1110 484V708H1153V607C1153 607 1166 634 1208 634ZM1200 468C1268 468 1268 601 1199 601C1154 601 1153 554 1153 554V519C1153 519 1154 468 1200 468ZM1665 634C1720 634 1761 607 1761 555C1761 513 1731 492 1694 477C1670 467 1643 457 1643 430C1643 407 1664 395 1689 395C1718 395 1740 407 1740 407L1751 373C1751 373 1729 360 1690 360C1641 360 1600 388 1600 435C1600 468 1623 494 1670 511C1696 520 1718 532 1718 559C1718 586 1696 599 1667 599C1630 599 1606 582 1606 582L1596 617C1596 617 1617 634 1665 634ZM1813 567C1813 610 1828 634 1867 634C1888 634 1900 629 1900 629L1899 597C1899 597 1891 599 1880 599C1863 599 1855 587 1855 563V470H1902V438H1855V390L1813 403V438H1785V470H1813V567ZM2114 533C2114 400 1926 399 1926 536C1926 669 2114 667 2114 533ZM2070 534C2070 626 1969 627 1969 535C1969 444 2070 442 2070 534ZM2194 524C2194 524 2195 474 2239 474C2246 474 2252 475 2252 475V435C2252 435 2246 434 2242 434C2200 434 2189 477 2189 477L2187 438H2150L2151 479V630H2194V524ZM2368 634C2405 634 2432 622 2432 622L2426 592C2426 592 2407 601 2374 601C2311 601 2314 544 2314 544H2442C2448 484 2424 434 2363 434C2298 434 2273 491 2273 536C2273 588 2302 634 2368 634ZM2314 514C2314 504 2324 463 2360 463C2405 463 2402 514 2402 514H2314ZM981 200C981 158 955 137 910 137C890 137 874 140 874 140V268C874 268 892 270 904 270C952 270 981 247 981 200ZM959 201C959 234 942 253 909 253C900 253 894 252 894 252V155C894 155 904 154 911 154C943 154 959 170 959 201ZM1255 174H1235L1216 249L1196 174H1179L1157 249L1140 174H1119L1147 269H1167L1187 199L1206 269H1226L1255 174ZM1401 269H1422V131H1401V269ZM1569 243C1569 274 1610 280 1626 258L1628 269H1647L1645 251V211C1645 185 1633 172 1608 172C1588 172 1576 180 1576 180L1580 194C1580 194 1589 187 1605 187C1619 187 1624 194 1624 208C1596 207 1569 217 1569 243ZM1590 241C1590 218 1625 222 1625 222V236C1625 258 1590 264 1590 241ZM1715 271C1739 271 1746 254 1746 254L1747 269H1766C1766 269 1765 255 1765 243V131H1744V185C1744 185 1737 172 1717 172C1663 172 1661 271 1715 271ZM1722 189C1744 189 1744 213 1744 213V229C1744 229 1744 254 1721 254C1689 254 1687 189 1722 189ZM1945 221C1945 156 1853 156 1853 222C1853 289 1945 287 1945 221ZM1923 221C1923 267 1874 268 1874 222C1874 177 1923 176 1923 221ZM2155 238C2155 258 2163 271 2181 271C2193 271 2198 268 2198 268L2197 252C2197 252 2194 253 2188 253C2180 253 2176 248 2176 236V190H2199V174H2176V151L2155 157V174H2141V190H2155V238ZM2387 270C2407 270 2419 265 2419 265L2416 250C2416 250 2408 254 2390 254C2359 254 2360 227 2360 227H2423C2428 204 2417 172 2385 172C2356 172 2340 197 2340 223C2340 247 2353 270 2387 270ZM2360 212C2360 212 2362 187 2383 187C2406 187 2404 212 2404 212H2360Z" fill="white"/>
</svg>
