<svg width="102" height="36" viewBox="0 0 102 36" fill="none" xmlns="http://www.w3.org/2000/svg">
<path d="M39.372 32.7602C42.9534 32.7602 45.0614 30.6452 45.0614 28.2827C45.0614 22.3652 36.176 24.4577 36.176 20.3852C36.176 19.0577 37.5134 17.7527 39.4854 17.7527C41.2307 17.7527 42.5454 19.0577 42.5454 20.9027H44.676C44.676 18.1577 42.4094 15.9077 39.4854 15.9077C36.312 15.9077 34.068 18.1577 34.068 20.3852C34.068 26.3027 42.9534 24.2102 42.9534 28.2827C42.9534 29.7227 41.752 30.9152 39.372 30.9152C37.1054 30.9152 35.7907 29.7227 35.7907 27.7652H33.66C33.66 30.6452 35.9267 32.7602 39.372 32.7602Z" fill="#2E3439"/>
<path d="M52.0903 32.7602C52.8837 32.7602 53.2917 32.4902 53.2917 32.4902V30.7802C53.2917 30.7802 53.0197 30.9152 52.6117 30.9152C51.433 30.9152 50.6397 30.1277 50.6397 28.8002V22.6127H53.2917V20.7902H50.6397V17.6177H48.917V19.3277C48.917 20.2502 48.373 20.7902 47.4437 20.7902H46.5143V22.6127H48.645V28.8002C48.645 31.1852 50.2317 32.7602 52.0903 32.7602Z" fill="#2E3439"/>
<path d="M60.8402 32.76C63.0842 32.76 64.2855 31.32 64.2855 31.32V32.625H66.2802V20.79H64.2855V27.63C64.2855 29.5875 62.9482 30.915 61.0895 30.915C59.5029 30.915 58.1882 29.5875 58.1882 27.63V20.79H56.1935V27.63C56.1935 30.645 58.3242 32.76 60.8402 32.76Z" fill="#2E3439"/>
<path d="M74.5009 32.76C76.8809 32.76 78.0823 31.32 78.0823 31.32V32.625H80.0543V16.0425H78.0823V22.23C78.0823 22.23 76.8809 20.655 74.5009 20.655C71.4409 20.655 68.9249 23.1525 68.9249 26.7075C68.9249 30.2625 71.4409 32.76 74.5009 32.76ZM74.6143 30.915C72.6423 30.915 70.9196 29.205 70.9196 26.7075C70.9196 24.21 72.6423 22.5 74.6143 22.5C76.6089 22.5 78.3316 24.21 78.3316 26.7075C78.3316 29.205 76.6089 30.915 74.6143 30.915Z" fill="#2E3439"/>
<path d="M83.6414 32.6252H85.6361V20.7902H83.6414V32.6252ZM84.6161 18.6752C85.3641 18.6752 85.8854 18.1577 85.8854 17.4377C85.8854 16.6952 85.3641 16.1777 84.6161 16.1777C83.9135 16.1777 83.3694 16.6952 83.3694 17.4377C83.3694 18.1577 83.9135 18.6752 84.6161 18.6752Z" fill="#2E3439"/>
<path d="M93.8694 32.7598C96.9068 32.7598 99.4228 30.2623 99.4228 26.7073C99.4228 23.1523 96.9068 20.6548 93.8694 20.6548C90.8094 20.6548 88.2934 23.1523 88.2934 26.7073C88.2934 30.2623 90.8094 32.7598 93.8694 32.7598ZM93.8694 30.9148C92.0108 30.9148 90.2881 29.2048 90.2881 26.7073C90.2881 24.2098 92.0108 22.4998 93.8694 22.4998C95.7281 22.4998 97.4508 24.2098 97.4508 26.7073C97.4508 29.2048 95.7281 30.9148 93.8694 30.9148Z" fill="#2E3439"/>
<path fill-rule="evenodd" clip-rule="evenodd" d="M44.074 3.375H45.5888L42.4359 6.61139C41.2944 7.78345 39.4456 7.78345 38.304 6.61139L35.1524 3.375H36.6673L39.0621 5.83388C39.7732 6.56755 40.9363 6.57658 41.6588 5.85451L41.6791 5.83388L44.074 3.375ZM36.6482 12.375H35.1334L38.3053 9.11798C39.4468 7.94592 41.2957 7.94592 42.4372 9.11798L45.6079 12.375H44.093L41.6791 9.89678C40.968 9.16311 39.8049 9.15408 39.0824 9.87615L39.0621 9.89678L36.6482 12.375ZM64.0427 3.375H64.0439C64.4312 3.38274 64.7944 3.4601 65.1322 3.60709C65.4763 3.74506 65.7785 3.93718 66.0362 4.18216C66.2966 4.42844 66.4997 4.71855 66.6457 5.05122C66.793 5.37873 66.8667 5.72557 66.8667 6.09176C66.8667 6.46569 66.7892 6.82156 66.633 7.15681C66.487 7.48302 66.2788 7.77185 66.0121 8.02457C65.7531 8.26956 65.4458 8.46554 65.0953 8.61125H65.0941C64.7474 8.7505 64.3754 8.82013 63.9792 8.82013H60.6727V12.3441H59.5095V3.375H64.0427ZM63.9792 7.73317C64.2128 7.73317 64.4338 7.69062 64.6433 7.60552C64.8553 7.52042 65.0395 7.40308 65.1969 7.25351C65.3544 7.10523 65.4801 6.92858 65.569 6.73001C65.6591 6.53274 65.7036 6.31999 65.7036 6.09176C65.7036 5.87128 65.6591 5.66239 65.569 5.46511C65.4801 5.26784 65.3531 5.0899 65.1969 4.94162C65.0395 4.79205 64.8553 4.676 64.6433 4.58961C64.4338 4.50451 64.2128 4.46196 63.9792 4.46196H60.6727V7.73317H63.9792ZM52.56 9.52027C52.1943 9.08961 51.6419 8.83947 51.0591 8.83947H49.3842V12.3441H48.2211V3.92557C48.2211 3.77858 48.2782 3.64964 48.3887 3.5452C48.503 3.4356 48.6427 3.375 48.8027 3.375H52.7555C53.1441 3.38274 53.5072 3.4601 53.8463 3.60709C54.1891 3.75408 54.49 3.94878 54.7491 4.19377C55.0094 4.44004 55.2126 4.73016 55.3586 5.06411C55.5059 5.39162 55.5795 5.73976 55.5795 6.10595C55.5795 6.44764 55.5148 6.77127 55.3852 7.07557C55.2646 7.37729 55.0919 7.64935 54.8684 7.89434C54.864 7.8995 54.8592 7.90466 54.8545 7.90981C54.8497 7.91497 54.845 7.92013 54.8405 7.92529L54.0837 7.06784C54.1624 6.96855 54.2285 6.86024 54.2831 6.74549C54.372 6.54821 54.4177 6.33546 54.4177 6.10723C54.4177 5.87772 54.3732 5.66497 54.2831 5.46769C54.1929 5.26784 54.0697 5.09893 53.9136 4.95838L53.911 4.9558C53.7536 4.80752 53.5694 4.69019 53.3574 4.6038C53.1479 4.5187 52.9269 4.47615 52.6933 4.47615H49.3868V7.73961H51.6635C52.2514 7.73961 52.8063 7.99362 53.172 8.42944L56.4582 12.3453H54.9624L52.56 9.52027Z" fill="#2E3439"/>
<path fill-rule="evenodd" clip-rule="evenodd" d="M15.4937 5.14272L5.16455 2.57129V15.4285L15.4937 17.9999V30.857L25.8228 33.4285V20.5713L15.4937 17.9999V5.14272Z" fill="#008CFF"/>
</svg>
