<svg width="16" height="18" viewBox="0 0 16 18" fill="none" xmlns="http://www.w3.org/2000/svg">
<path d="M5.4425 10.1325L10.565 13.1175M10.5575 4.8825L5.4425 7.8675M14.75 3.75C14.75 4.99264 13.7426 6 12.5 6C11.2574 6 10.25 4.99264 10.25 3.75C10.25 2.50736 11.2574 1.5 12.5 1.5C13.7426 1.5 14.75 2.50736 14.75 3.75ZM5.75 9C5.75 10.2426 4.74264 11.25 3.5 11.25C2.25736 11.25 1.25 10.2426 1.25 9C1.25 7.75736 2.25736 6.75 3.5 6.75C4.74264 6.75 5.75 7.75736 5.75 9ZM14.75 14.25C14.75 15.4926 13.7426 16.5 12.5 16.5C11.2574 16.5 10.25 15.4926 10.25 14.25C10.25 13.0074 11.2574 12 12.5 12C13.7426 12 14.75 13.0074 14.75 14.25Z" stroke="white" stroke-width="2" stroke-linecap="round" stroke-linejoin="round"/>
</svg>
