<svg width="18" height="16" viewBox="0 0 18 16" fill="none" xmlns="http://www.w3.org/2000/svg">
<path d="M5.50608 15.9517H5.42633C3.81971 15.9376 2.23632 15.5664 0.790805 14.8651C0.524909 14.7402 0.305978 14.5334 0.16606 14.2751C0.0261425 14.0168 -0.0274131 13.7205 0.0132335 13.4295C0.0574399 13.1366 0.193059 12.8652 0.40073 12.6539C0.6084 12.4427 0.877504 12.3024 1.16962 12.2532C2.06544 12.1337 2.92722 11.8317 3.70171 11.366C2.35707 10.3147 1.3219 8.9192 0.705889 7.32741C0.0898806 5.73562 -0.0840113 4.00682 0.202642 2.32423C0.241509 2.05771 0.356127 1.80797 0.532859 1.60473C0.70959 1.40149 0.940993 1.25331 1.19953 1.17781C1.45106 1.09881 1.72025 1.09544 1.97368 1.1681C2.22711 1.24076 2.45362 1.38626 2.62508 1.58653C3.20726 2.34993 3.93887 2.98672 4.77527 3.45805C5.61167 3.92938 6.53532 4.22537 7.48988 4.32797C7.53548 3.15349 8.0402 2.04382 8.8955 1.23762C9.32256 0.828672 9.82675 0.508808 10.3787 0.296667C10.9306 0.0845268 11.5192 -0.0156478 12.1103 0.00198101C12.7013 0.0196098 13.2829 0.15469 13.8212 0.399349C14.3595 0.644008 14.8437 0.993353 15.2457 1.42703C15.3504 1.51961 15.4805 1.57861 15.6191 1.59638C15.7578 1.61416 15.8986 1.58989 16.0232 1.52672C16.2609 1.41461 16.5256 1.37241 16.7864 1.40504C17.0471 1.43767 17.2932 1.54378 17.496 1.71099C17.6987 1.8782 17.8497 2.09961 17.9314 2.3494C18.0131 2.59919 18.022 2.86705 17.9572 3.12174C17.7273 4.06889 17.2916 4.95381 16.6812 5.71364C16.5466 8.54954 15.2964 11.2172 13.203 13.1351C11.1096 15.0529 8.34289 16.0654 5.50608 15.9517ZM5.50608 13.9579H5.58583C6.74488 13.9978 7.90031 13.8072 8.98515 13.3971C10.07 12.9871 11.0626 12.3658 11.9055 11.5692C12.7484 10.7727 13.4249 9.81675 13.8955 8.75683C14.3662 7.6969 14.6218 6.55409 14.6475 5.39464C14.664 5.07688 14.795 4.77585 15.0164 4.54729C15.2595 4.23949 15.4669 3.90505 15.6345 3.5504C15.2753 3.55108 14.9201 3.47596 14.592 3.32994C14.2639 3.18393 13.9703 2.97031 13.7304 2.70304C13.4997 2.47431 13.2257 2.2939 12.9245 2.17236C12.6232 2.05083 12.3007 1.99062 11.9759 1.99525C11.6478 1.98677 11.3213 2.04317 11.0151 2.16121C10.7088 2.27925 10.4289 2.45661 10.1914 2.68311C9.87103 2.98716 9.63609 3.37003 9.51012 3.7934C9.38416 4.21678 9.3716 4.66581 9.47369 5.09557L9.73288 6.23202L8.56652 6.31177C7.37135 6.40923 6.16927 6.24574 5.04354 5.83263C3.91781 5.41952 2.89532 4.76665 2.04688 3.91925C2.0105 5.23154 2.33877 6.52822 2.99522 7.66512C3.65166 8.80202 4.61055 9.73458 5.76527 10.3591L6.71231 10.8975L6.08427 11.7947C5.40509 12.6854 4.47449 13.3521 3.41262 13.7087C4.0938 13.8794 4.79387 13.9631 5.49611 13.9579H5.50608Z" fill="white"/>
</svg>
