<svg width="113" height="113" viewBox="0 0 113 113" fill="none" xmlns="http://www.w3.org/2000/svg">
<path fill-rule="evenodd" clip-rule="evenodd" d="M87.5619 1.89559C89.6447 -0.187203 93.0216 -0.187203 95.1044 1.89559L111.104 17.8956C113.187 19.9784 113.187 23.3553 111.104 25.4381C109.022 27.5209 105.645 27.5209 103.562 25.4381L96.6665 18.5426V37.6668C96.6665 40.6124 94.2787 43.0002 91.3332 43.0002C88.3876 43.0002 85.9998 40.6124 85.9998 37.6668V18.5426L79.1044 25.4381C77.0216 27.5209 73.6447 27.5209 71.5619 25.4381C69.4791 23.3553 69.4791 19.9784 71.5619 17.8956L87.5619 1.89559ZM31.3796 5.66683H56.6665C59.612 5.66683 61.9998 8.05464 61.9998 11.0002C61.9998 13.9457 59.612 16.3335 56.6665 16.3335H31.5998C27.0314 16.3335 23.9259 16.3376 21.5254 16.5338C19.1872 16.7248 17.9914 17.0711 17.1573 17.4961C15.1502 18.5187 13.5184 20.1505 12.4958 22.1576C12.0708 22.9917 11.7245 24.1875 11.5334 26.5257C11.3373 28.9262 11.3332 32.0317 11.3332 36.6002V81.4002C11.3332 85.9686 11.3373 89.0742 11.5334 91.4746C11.7245 93.8129 12.0708 95.0086 12.4958 95.8427C13.4516 97.7187 14.9396 99.2667 16.7688 100.296C17.2295 99.574 17.7226 99.0278 18.0471 98.6767C18.8562 97.8012 19.9568 96.8009 21.0954 95.7661L66.4717 54.5149C67.3301 53.7343 68.179 52.9624 68.9561 52.3567C69.82 51.6834 70.8909 50.9731 72.2592 50.5287C74.1827 49.9039 76.2442 49.8389 78.2033 50.3412C79.5968 50.6985 80.7104 51.3399 81.615 51.9574C82.4287 52.5129 83.3245 53.2297 84.2304 53.9546L99.2679 65.9846C99.384 66.0775 99.4992 66.1695 99.6135 66.2608C101.29 67.5991 102.765 68.7768 103.919 70.248C105.357 72.0797 106.377 74.2032 106.91 76.47C107.337 78.2908 107.335 80.1782 107.333 82.3231C107.333 82.4693 107.333 82.6167 107.333 82.7654V82.9538C107.333 83.8411 107.333 84.691 107.331 85.5048C107.332 85.5586 107.333 85.6126 107.333 85.6668C107.333 85.915 107.333 86.1596 107.333 86.4006C107.336 90.6426 107.337 93.7928 106.606 96.5216C105.743 99.7425 104.157 102.655 102.029 105.077C101.267 105.945 100.436 106.75 99.5428 107.484C97.2308 109.384 94.5088 110.806 91.5213 111.607C88.7925 112.338 85.6423 112.336 81.4002 112.334C81.1592 112.334 80.9147 112.333 80.6665 112.333H78.2772C78.1698 112.333 78.0619 112.333 77.9534 112.333H31.3794C31.2508 112.333 31.1228 112.333 30.9955 112.333L27.5006 112.334C26.1362 112.334 24.8122 112.334 23.7017 112.262C22.6143 112.227 21.6004 112.175 20.6568 112.098C17.6589 111.853 14.9032 111.327 12.3147 110.008C8.30059 107.963 5.037 104.699 2.9917 100.685C1.67282 98.0968 1.14714 95.3411 0.902208 92.3432C0.666382 89.4569 0.666438 85.9136 0.666506 81.6204V36.3799C0.666438 32.0867 0.666382 28.5435 0.902208 25.6571C1.14714 22.6592 1.67282 19.9035 2.9917 17.315C5.037 13.3009 8.30059 10.0373 12.3147 7.99202C14.9032 6.67314 17.6589 6.14746 20.6568 5.90253C23.5431 5.6667 27.0864 5.66676 31.3796 5.66683ZM94.48 97.4706C95.0104 96.7755 95.4574 96.0123 95.8068 95.1954C96.1194 94.4649 96.3769 93.4193 96.5184 91.4036C96.6634 89.3381 96.6665 86.6783 96.6665 82.7654C96.6665 79.9298 96.6334 79.3682 96.5253 78.9079C96.3479 78.1522 96.0077 77.4444 95.5285 76.8339C95.2366 76.462 94.8187 76.0853 92.6045 74.3139L77.6859 62.379C76.6138 61.5213 76.0388 61.0659 75.6011 60.7671C75.5854 60.7564 75.5704 60.7463 75.5562 60.7367C75.5426 60.7471 75.5283 60.7582 75.5133 60.7699C75.0953 61.0957 74.5501 61.5865 73.5343 62.51L30.462 101.667C30.8309 101.667 31.2101 101.667 31.5998 101.667H77.7651C81.678 101.667 84.3377 101.664 86.4033 101.519C88.419 101.377 89.4646 101.12 90.1951 100.807C91.0255 100.452 91.8003 99.996 92.5046 99.454C93.2471 98.8826 93.9115 98.2155 94.48 97.4706ZM35.3332 35.0002C32.3877 35.0002 29.9998 37.388 29.9998 40.3335C29.9998 43.279 32.3877 45.6668 35.3332 45.6668C38.2787 45.6668 40.6665 43.279 40.6665 40.3335C40.6665 37.388 38.2787 35.0002 35.3332 35.0002ZM19.3332 40.3335C19.3332 31.4969 26.4966 24.3335 35.3332 24.3335C44.1697 24.3335 51.3332 31.4969 51.3332 40.3335C51.3332 49.1701 44.1697 56.3335 35.3332 56.3335C26.4966 56.3335 19.3332 49.1701 19.3332 40.3335Z" fill="#454D54"/>
</svg>
